<svg width="137" height="177" viewBox="0 0 137 177" fill="none" xmlns="http://www.w3.org/2000/svg">
<path d="M136.543 64.8951C136.543 71.2028 134.89 77.4003 131.75 82.8706C128.609 88.3405 124.09 92.8926 118.644 96.073C113.197 99.2539 107.011 100.952 100.704 100.998C94.3964 101.045 88.1868 99.4385 82.6937 96.3385C79.0006 99.0522 74.6082 100.652 70.0353 100.949C65.4624 101.247 60.8996 100.229 56.8865 98.0167C51.9081 100.001 46.5953 101.014 41.2358 101C18.4978 101 0 83.0587 0 61.0048C0 38.9509 18.4978 21.0098 41.2358 21.0098H41.2454C45.7463 13.4999 52.4213 7.53348 60.3869 3.89971C68.3526 0.265954 77.2334 -0.863871 85.8553 0.659707C94.4773 2.18329 102.433 6.28848 108.671 12.4322C114.909 18.5759 119.135 26.4686 120.789 35.0662C125.662 38.3632 129.648 42.809 132.395 48.0112C135.142 53.2136 136.567 59.0121 136.543 64.8951ZM82.3281 87.0845C83.1674 87.084 83.987 87.3393 84.6777 87.8162C87.7433 89.9226 91.2008 91.393 94.8449 92.1403C98.4889 92.8876 102.246 92.8962 105.893 92.1661C109.54 91.4354 113.004 89.9812 116.08 87.889C119.156 85.7967 121.781 83.1088 123.799 79.984C125.817 76.8597 127.189 73.3618 127.832 69.6981C128.476 66.0343 128.377 62.2785 127.544 58.6537C126.71 55.0283 125.158 51.6072 122.979 48.5923C120.8 45.5775 118.038 43.0303 114.858 41.1013C114.336 40.7845 113.891 40.3563 113.554 39.8474C113.217 39.3385 112.997 38.7615 112.909 38.1576C111.834 30.8426 108.468 24.0568 103.294 18.7758C98.1193 13.4948 91.4036 9.99057 84.1124 8.76711C76.8208 7.54359 69.3294 8.66386 62.7143 11.9667C56.0997 15.2696 50.7032 20.585 47.2998 27.1486C46.9318 27.8615 46.3639 28.4516 45.6657 28.8467C44.9675 29.2419 44.1692 29.4249 43.3686 29.3733C42.5495 29.3228 41.8704 29.2985 41.2323 29.2985C23.0631 29.2985 8.28115 43.5233 8.28115 61.0068C8.28115 78.4904 23.0652 92.7147 41.2323 92.7147C46.1534 92.7303 51.0182 91.6675 55.4844 89.6015C56.1377 89.2997 56.8582 89.1728 57.5752 89.2334C58.2921 89.2946 58.9808 89.5414 59.5734 89.9494C62.5687 92.0093 66.1855 92.9665 69.8078 92.658C73.4296 92.3496 76.8324 90.7948 79.4364 88.2581C80.2105 87.5047 81.2481 87.0835 82.3281 87.0845Z" fill="#4F80E1"/>
<path d="M46.6137 46.3563H40.4557C40.2106 46.3563 39.9757 46.4537 39.8025 46.6269C39.6292 46.8002 39.5319 47.0351 39.5319 47.2801V61.7516H39.5476L47.5365 53.7627V47.2806C47.5366 47.0357 47.4395 46.8008 47.2664 46.6274C47.0934 46.4541 46.8586 46.3566 46.6137 46.3563Z" fill="#292C44"/>
<path d="M71.8348 39.6062C70.8984 38.6697 69.6278 38.1435 68.3035 38.1435C66.9788 38.1435 65.7087 38.6697 64.7722 39.6062L49.0943 55.2842L47.5375 56.8415L39.5486 64.8304L21.2388 83.1401C26.1283 86.7154 31.8843 88.9199 37.9113 89.5247C43.9383 90.1299 50.0176 89.1141 55.5203 86.5819C56.1736 86.2806 56.8936 86.1542 57.6105 86.2148C58.327 86.276 59.0157 86.5227 59.6083 86.9303C62.6031 88.9902 66.2203 89.9474 69.8421 89.6389C73.4639 89.3305 76.8668 87.7752 79.4703 85.2385C80.1579 84.5705 81.0559 84.161 82.0111 84.0806C82.9667 84.0002 83.9203 84.253 84.7101 84.7965C89.4245 88.0437 95.0279 89.7547 100.752 89.694C106.476 89.6334 112.042 87.805 116.687 84.4588L71.8348 39.6062ZM67.9339 77.3092C67.9339 77.4968 67.8591 77.6768 67.7266 77.8098C67.5936 77.9423 67.4136 78.0171 67.226 78.0171H61.4735C61.2859 78.0171 61.1059 77.9423 60.973 77.8098C60.84 77.6768 60.7657 77.4968 60.7657 77.3092V71.5567C60.7657 71.3691 60.84 71.1891 60.973 71.0561C61.1059 70.9237 61.2859 70.8488 61.4735 70.8488H67.226C67.4136 70.8488 67.5936 70.9237 67.7266 71.0561C67.8591 71.1891 67.9339 71.3691 67.9339 71.5567V77.3092ZM67.9339 68.5973C67.9339 68.7849 67.8591 68.9649 67.7266 69.0979C67.5936 69.2308 67.4136 69.3052 67.226 69.3052H61.4735C61.2859 69.3052 61.1059 69.2308 60.973 69.0979C60.84 68.9649 60.7657 68.7849 60.7657 68.5973V62.8448C60.7657 62.6572 60.84 62.4772 60.973 62.3442C61.1059 62.2117 61.2859 62.1369 61.4735 62.1369H67.226C67.4136 62.1369 67.5936 62.2117 67.7266 62.3442C67.8591 62.4772 67.9339 62.6572 67.9339 62.8448V68.5973ZM77.1601 77.3092C77.1601 77.4968 77.0852 77.6768 76.9528 77.8098C76.8198 77.9423 76.6398 78.0171 76.4522 78.0171H70.6997C70.5121 78.0171 70.3321 77.9423 70.1991 77.8098C70.0661 77.6768 69.9918 77.4968 69.9918 77.3092V71.5567C69.9918 71.3691 70.0661 71.1891 70.1991 71.0561C70.3321 70.9237 70.5121 70.8488 70.6997 70.8488H76.4522C76.6398 70.8488 76.8198 70.9237 76.9528 71.0561C77.0852 71.1891 77.1601 71.3691 77.1601 71.5567V77.3092ZM77.1601 68.5973C77.1601 68.7849 77.0852 68.9649 76.9528 69.0979C76.8198 69.2308 76.6398 69.3052 76.4522 69.3052H70.6997C70.5121 69.3052 70.3321 69.2308 70.1991 69.0979C70.0661 68.9649 69.9918 68.7849 69.9918 68.5973V62.8448C69.9918 62.6572 70.0661 62.4772 70.1991 62.3442C70.3321 62.2117 70.5121 62.1369 70.6997 62.1369H76.4522C76.6398 62.1369 76.8198 62.2117 76.9528 62.3442C77.0852 62.4772 77.1601 62.6572 77.1601 62.8448V68.5973Z" fill="#292C44"/>
<path d="M20.4616 146V111.091H32.6662C35.098 111.091 37.1037 111.511 38.6832 112.352C40.2628 113.182 41.4389 114.301 42.2116 115.71C42.9844 117.108 43.3707 118.659 43.3707 120.364C43.3707 121.864 43.1037 123.102 42.5696 124.08C42.0469 125.057 41.3537 125.83 40.4901 126.398C39.6378 126.966 38.7116 127.386 37.7116 127.659V128C38.7798 128.068 39.8537 128.443 40.9332 129.125C42.0128 129.807 42.9162 130.784 43.6435 132.057C44.3707 133.33 44.7344 134.886 44.7344 136.727C44.7344 138.477 44.3366 140.051 43.5412 141.449C42.7457 142.847 41.4901 143.955 39.7741 144.773C38.0582 145.591 35.8253 146 33.0753 146H20.4616ZM24.6889 142.25H33.0753C35.8366 142.25 37.7969 141.716 38.956 140.648C40.1264 139.568 40.7116 138.261 40.7116 136.727C40.7116 135.545 40.4105 134.455 39.8082 133.455C39.206 132.443 38.348 131.636 37.2344 131.034C36.1207 130.42 34.8026 130.114 33.2798 130.114H24.6889V142.25ZM24.6889 126.432H32.5298C33.8026 126.432 34.9503 126.182 35.973 125.682C37.0071 125.182 37.8253 124.477 38.4276 123.568C39.0412 122.659 39.348 121.591 39.348 120.364C39.348 118.83 38.8139 117.528 37.7457 116.46C36.6776 115.381 34.9844 114.841 32.6662 114.841H24.6889V126.432ZM51.6804 111.091H56.7259L68.5895 140.068H68.9986L80.8622 111.091H85.9077V146H81.9531V119.477H81.6122L70.7031 146H66.8849L55.9759 119.477H55.6349V146H51.6804V111.091ZM113.474 119.818C113.27 118.091 112.44 116.75 110.986 115.795C109.531 114.841 107.747 114.364 105.634 114.364C104.088 114.364 102.736 114.614 101.577 115.114C100.429 115.614 99.5313 116.301 98.8835 117.176C98.2472 118.051 97.929 119.045 97.929 120.159C97.929 121.091 98.1506 121.892 98.5938 122.562C99.0483 123.222 99.6278 123.773 100.332 124.216C101.037 124.648 101.776 125.006 102.548 125.29C103.321 125.562 104.031 125.784 104.679 125.955L108.224 126.909C109.134 127.148 110.145 127.477 111.259 127.898C112.384 128.318 113.457 128.892 114.48 129.619C115.514 130.335 116.366 131.256 117.037 132.381C117.707 133.506 118.043 134.886 118.043 136.523C118.043 138.409 117.548 140.114 116.56 141.636C115.582 143.159 114.151 144.369 112.264 145.267C110.389 146.165 108.111 146.614 105.429 146.614C102.929 146.614 100.764 146.21 98.9347 145.403C97.1165 144.597 95.6847 143.472 94.6392 142.028C93.6051 140.585 93.0199 138.909 92.8835 137H97.2472C97.3608 138.318 97.804 139.409 98.5767 140.273C99.3608 141.125 100.349 141.761 101.543 142.182C102.747 142.591 104.043 142.795 105.429 142.795C107.043 142.795 108.491 142.534 109.776 142.011C111.06 141.477 112.077 140.739 112.827 139.795C113.577 138.841 113.952 137.727 113.952 136.455C113.952 135.295 113.628 134.352 112.98 133.625C112.332 132.898 111.48 132.307 110.423 131.852C109.366 131.398 108.224 131 106.997 130.659L102.702 129.432C99.9744 128.648 97.8153 127.528 96.2244 126.074C94.6335 124.619 93.8381 122.716 93.8381 120.364C93.8381 118.409 94.3665 116.705 95.4233 115.25C96.4915 113.784 97.9233 112.648 99.7188 111.841C101.526 111.023 103.543 110.614 105.77 110.614C108.02 110.614 110.02 111.017 111.77 111.824C113.52 112.619 114.906 113.71 115.929 115.097C116.963 116.483 117.509 118.057 117.565 119.818H113.474Z" fill="black"/>
</svg>
